<?xml version="1.0" standalone="no"?>
<!DOCTYPE svg PUBLIC "-//W3C//DTD SVG 1.1//EN" "http://www.w3.org/Graphics/SVG/1.1/DTD/svg11.dtd"><svg t="1683632760502"
  class="icon" viewBox="0 0 1024 1024" version="1.1" xmlns="http://www.w3.org/2000/svg" p-id="4338" width="16"
  height="16" xmlns:xlink="http://www.w3.org/1999/xlink">
  <path
    d="M512 0a512 512 0 1 0 0 1024A512 512 0 0 0 512 0z m0.853333 870.4c-39.509333 0-71.509333-29.952-71.509333-66.901333 0-36.949333 32-66.901333 71.509333-66.901334 39.424 0 71.509333 29.952 71.509334 66.901334 0 36.949333-32.085333 66.901333-71.509334 66.901333z"
    fill="#FF441B" p-id="4339"></path>
  <path
    d="M641.024 312.746667l-56.832 316.330666 0.170667 1.024c0 36.949333-32.085333 66.901333-71.509334 66.901334-39.509333 0-71.509333-29.952-71.509333-66.901334v-1.024l-56.746667-316.330666h0.853334a114.944 114.944 0 0 1-0.853334-13.141334c0-66.56 57.429333-120.405333 128.256-120.405333 70.826667 0 128.170667 53.930667 128.170667 120.32 0 4.522667-0.341333 8.874667-0.853333 13.226667h0.853333z"
    fill="#FFFFFF" p-id="4340"></path>
</svg>