<?xml version="1.0" standalone="no"?><!DOCTYPE svg PUBLIC "-//W3C//DTD SVG 1.1//EN" "http://www.w3.org/Graphics/SVG/1.1/DTD/svg11.dtd"><svg t="1683619565648" class="icon" viewBox="0 0 1024 1024" version="1.1" xmlns="http://www.w3.org/2000/svg" p-id="3342" xmlns:xlink="http://www.w3.org/1999/xlink" width="200" height="200"><path d="M1024 512c0 282.8-229.3 512-512 512C229.2 1024 0 794.8 0 512 0 229.3 229.2 0 512 0s512 229.3 512 512" fill="#e10000" p-id="3343"></path><path d="M440.7 750.4c0-18.7 6.9-34.1 20.6-46.1 13.7-12 30.6-18 50.6-18 20.2 0 37.1 6.1 50.4 18.2 13.4 12.1 20.1 27.4 20.1 45.9 0 18-6.5 33.3-19.5 45.8s-28.6 18.7-46.9 18.7c-23 0-41.3-6.3-54.9-18.7-13.6-12.6-20.4-27.8-20.4-45.8zM575 225l-15 402h-98.3l-14.3-402H575z" fill="#ffffff" p-id="3344"></path></svg>